# xmcd CD database file
#
# Track frame offsets:
#	150
#	41445
#	71739
#	97756
#	120459
#	139636
#	158627
#	182643
#	204231
#	219651
#	236360
#	253273
#	266721
#	282526
#	298596
#	315849
#	333194
#
# Disc length: 4686 seconds
#
# Revision: 0
# Processed by: cddbd v1.5.2PL0 Copyright (c) Steve Scherf et al.
# Submitted via: CDex 1.50
#
DISCID=f2124c11
DTITLE=Coleman Hawkins - Seven Classic Albums [CD2)
DYEAR=1957
DGENRE=Jazz
TTITLE0=Sancticity
TTITLE1=Blues for Yolande
TTITLE2=It never entered my mind
TTITLE3=La Rosita
TTITLE4=You´d be so nice to come home to
TTITLE5=Prisoner of love
TTITLE6=Tangerine
TTITLE7=Shine on harvest moon
TTITLE8=I´ll never be the same
TTITLE9=You´re blase
TTITLE10=I wished on the moon
TTITLE11=How long has this been going on
TTITLE12=Like someone in love
TTITLE13=My melancholy baby
TTITLE14=Ill wind
TTITLE15=In a mellow tone
TTITLE16=There´s to you
EXTD=YEAR: 1957
EXTT0=
EXTT1=
EXTT2=
EXTT3=
EXTT4=
EXTT5=
EXTT6=
EXTT7=
EXTT8=
EXTT9=
EXTT10=
EXTT11=
EXTT12=
EXTT13=
EXTT14=
EXTT15=
EXTT16=
PLAYORDER=
